<?xml version="1.0" encoding="UTF-8" standalone="no"?>
<!-- Created with Inkscape (http://www.inkscape.org/) -->

<svg
   width="210mm"
   height="297mm"
   viewBox="0 0 210 297"
   version="1.1"
   id="svg1"
   xml:space="preserve"
   inkscape:version="1.3.2 (091e20e, 2023-11-25, custom)"
   sodipodi:docname="pingvinbazis-ornament.svg"
   xmlns:inkscape="http://www.inkscape.org/namespaces/inkscape"
   xmlns:sodipodi="http://sodipodi.sourceforge.net/DTD/sodipodi-0.dtd"
   xmlns="http://www.w3.org/2000/svg"
   xmlns:svg="http://www.w3.org/2000/svg"><sodipodi:namedview
     id="namedview1"
     pagecolor="#505050"
     bordercolor="#eeeeee"
     borderopacity="1"
     inkscape:showpageshadow="0"
     inkscape:pageopacity="0"
     inkscape:pagecheckerboard="0"
     inkscape:deskcolor="#505050"
     inkscape:document-units="mm"
     showgrid="false"
     inkscape:zoom="1.0847363"
     inkscape:cx="266.88514"
     inkscape:cy="442.9648"
     inkscape:window-width="2486"
     inkscape:window-height="1057"
     inkscape:window-x="66"
     inkscape:window-y="-8"
     inkscape:window-maximized="1"
     inkscape:current-layer="g54"><sodipodi:guide
       position="0,297"
       orientation="0,793.70079"
       id="guide7"
       inkscape:locked="false" /><sodipodi:guide
       position="210,297"
       orientation="1122.5197,0"
       id="guide8"
       inkscape:locked="false" /><sodipodi:guide
       position="210,0"
       orientation="0,-793.70079"
       id="guide9"
       inkscape:locked="false" /><sodipodi:guide
       position="0,0"
       orientation="-1122.5197,0"
       id="guide10"
       inkscape:locked="false" /></sodipodi:namedview><defs
     id="defs1" /><g
     inkscape:groupmode="layer"
     id="g54"
     inkscape:label="base"
     style="display:inline"><path
       id="path50"
       style="display:inline;fill:#ffffff;stroke:#000000;stroke-width:0.264583;stroke-dasharray:none;stroke-opacity:1;fill-opacity:1"
       d="M 100.13239 65.132458 A 10.000207 9.999999 0 0 0 90.132483 75.132365 A 10.000207 9.999999 0 0 0 91.757707 80.589396 A 60 60 0 0 0 84.392265 82.154675 C 84.163042 82.155004 83.934076 82.137701 83.704968 82.147441 C 79.179558 82.226783 74.869782 84.299125 71.587878 87.34919 A 60 60 0 0 0 67.694059 89.465857 C 67.40317 89.518331 67.108608 89.555149 66.805741 89.555257 C 63.444234 90.059081 59.759749 89.918735 56.802218 91.872428 C 55.552251 92.734481 54.203645 93.953245 54.132613 95.56936 C 54.261775 97.125902 55.949805 97.96569 57.366524 97.901001 C 57.402119 97.905128 57.438392 97.905783 57.474011 97.909786 A 60 60 0 0 0 40.000142 140.00024 A 60 60 0 0 0 100.0001 200.0002 A 60 60 0 0 0 127.45269 193.19803 C 130.85752 194.73169 133.80784 197.1315 137.1415 198.81474 C 140.58823 200.67784 144.54145 201.73762 148.47311 201.32415 C 149.79825 201.23535 151.33971 201.02466 152.12198 199.80279 C 153.09506 198.39864 152.24455 196.43393 150.85798 195.65937 C 147.33796 193.74497 145.35633 189.91687 144.44183 186.14781 C 144.04118 184.50507 143.72446 182.84784 143.45378 181.18326 A 60 60 0 0 0 160.00005 140.00024 A 60 60 0 0 0 108.49157 80.6111 A 10.000207 9.999999 0 0 0 110.13281 75.132365 A 10.000207 9.999999 0 0 0 100.13239 65.132458 z M 100.13239 68.132275 A 7 7 0 0 1 107.13248 75.132365 A 7 7 0 0 1 100.13239 82.132454 A 7 7 0 0 1 93.1323 75.132365 A 7 7 0 0 1 100.13239 68.132275 z M 100.0001 84.99998 A 55 55 0 0 1 154.99984 140.00024 A 55 55 0 0 1 142.59285 174.64567 C 142.30732 172.07276 142.04907 169.49543 141.72727 166.9309 C 140.69401 157.32799 139.34309 147.6899 136.3276 138.48147 C 132.86735 127.39026 127.58849 116.64887 119.57668 108.12312 C 116.22814 104.58926 112.22233 101.78093 108.18668 99.09731 C 105.06872 96.869752 102.66642 93.84849 100.29207 90.883341 C 98.635381 88.846742 96.769237 86.899828 94.613863 85.384969 A 55 55 0 0 1 100.0001 84.99998 z M 63.972323 98.44412 C 65.217254 98.585338 66.453626 98.775554 67.656335 99.154154 C 70.421494 100.45576 72.507668 102.82601 74.305542 105.23285 C 75.233625 106.59946 76.194172 108.049 76.57207 109.66514 C 76.439562 111.18503 75.836884 112.62258 75.780904 114.15634 C 74.462055 123.99134 76.136871 133.95281 78.695972 143.45119 C 81.744376 154.5912 86.31477 165.42629 93.049101 174.85599 C 93.541671 175.44745 94.153142 175.95108 94.859326 176.26469 C 96.034047 179.41949 97.643361 182.71861 100.66362 184.47763 C 101.00519 184.75835 101.66388 184.64958 101.72247 185.18818 C 102.27902 186.40435 103.53641 187.30078 103.55854 188.73525 C 103.65564 189.3467 103.67502 190.41437 102.79528 190.36151 C 98.270548 190.94624 93.641083 190.92358 89.211092 192.10559 C 88.219287 192.40528 87.253636 192.77298 86.296025 193.16185 A 55 55 0 0 1 44.999837 140.00024 A 55 55 0 0 1 63.972323 98.44412 z M 85.702262 111.66037 C 85.897913 111.66116 86.093418 111.67282 86.286723 111.69447 C 87.449402 111.8355 88.910372 112.12133 89.466374 113.27629 C 89.745124 114.9212 88.803995 116.44664 88.650403 118.06153 C 88.050284 121.38304 88.539665 124.94231 90.331954 127.83664 C 90.85845 128.86478 91.743347 129.81428 91.849174 130.9889 C 91.193955 136.81763 90.519598 142.66577 90.671468 148.54235 C 90.664468 150.11095 90.694075 151.6798 90.761385 153.24698 C 88.234093 146.91047 86.260054 140.34067 84.739014 133.65903 C 83.311891 127.16225 82.417151 120.54153 82.626481 113.87987 C 82.585591 113.00178 83.130507 112.21118 83.979887 111.96733 C 84.343644 111.82472 84.727122 111.73483 85.116252 111.69137 C 85.310816 111.66964 85.506612 111.65957 85.702262 111.66037 z M 108.10916 175.86007 C 108.24132 175.974 108.37336 176.08823 108.50552 176.20216 C 111.10445 178.64907 112.2122 182.27106 112.45463 185.7468 C 110.82086 184.54824 109.17427 183.24451 107.53297 182.13152 C 108.45057 180.17689 108.33706 177.95093 108.10916 175.86007 z " /></g><g
     inkscape:label="penguin"
     inkscape:groupmode="layer"
     id="layer1"
     style="display:inline"><path
       style="display:inline;fill:#000000;fill-opacity:1"
       d="m 145.86436,199.52435 c -1.50756,-0.1482 -3.65233,-0.75067 -5.29873,-1.48844 -1.30078,-0.5829 -2.27041,-1.13277 -5.32777,-3.02138 -4.62632,-2.85779 -5.26034,-3.20746 -6.99586,-3.8583 -3.66495,-1.37441 -6.77365,-1.22513 -10.32368,0.49577 -1.74908,0.84787 -2.66105,1.45931 -4.17071,2.79628 -1.08424,0.96022 -1.69539,1.36421 -2.42307,1.60175 -0.493,0.16093 -1.21838,0.16764 -10.74964,0.0995 -5.621532,-0.0402 -10.49852,-0.10321 -10.83775,-0.14 l -0.616783,-0.0669 1.321677,-0.42203 c 0.726922,-0.23211 1.579404,-0.4683 1.894404,-0.52486 0.829471,-0.14893 4.725027,-0.5549 8.634952,-0.89988 1.86577,-0.16462 3.55091,-0.34912 3.74475,-0.41 0.81046,-0.25454 1.64528,-1.07413 2.0124,-1.97567 0.16388,-0.40243 0.18987,-0.64168 0.18657,-1.71756 -0.003,-1.11702 -0.0292,-1.32309 -0.24232,-1.93694 -0.33857,-0.9752 -0.79785,-1.79026 -1.45283,-2.57825 -0.65857,-0.79231 -0.63682,-0.83685 0.37281,-0.76331 0.78654,0.0573 0.62083,-0.0475 4.3425,2.74716 3.13896,2.35713 3.25942,2.42066 4.24775,2.24002 0.7191,-0.13144 1.30238,-0.45846 1.51132,-0.84733 0.40803,-0.75943 0.029,-4.67682 -0.68328,-7.06135 -0.69007,-2.31028 -1.71402,-4.22277 -3.10867,-5.8063 -1.02732,-1.16644 -1.90324,-1.87201 -3.19567,-2.57416 l -0.85558,-0.46481 -0.35053,-0.85623 c -0.6567,-1.60411 -0.77459,-2.50279 -0.9925,-7.5655 -0.24363,-5.66043 0.28603,-10.28092 1.82294,-15.90253 0.59622,-2.18082 1.67251,-7.07841 1.80526,-8.21475 0.17243,-1.47601 0.0287,-2.29961 -0.84034,-4.81572 -1.76248,-5.1028 -3.63906,-9.014 -5.74625,-11.97643 -1.256,-1.76576 -2.78512,-2.90615 -4.252451,-3.1714 l -0.396503,-0.0717 0.616782,0.35744 c 1.321892,0.76606 2.246542,1.91734 3.150152,3.92222 0.66396,1.47317 4.96081,12.4726 5.28924,13.53985 0.31239,1.01509 0.41521,2.54296 0.24615,3.65741 -0.0578,0.38092 -0.4967,2.26759 -0.97537,4.19259 -1.98399,7.97872 -2.29978,9.58682 -2.55293,13 -0.21877,2.9497 -0.0911,5.14032 0.62336,10.7 1.14164,8.88326 1.1875,9.42928 0.91557,10.9 -0.27503,1.48749 -0.88937,2.3029 -1.91755,2.54515 -1.85957,0.43813 -3.87565,-1.52041 -5.656199,-5.49475 -1.986252,-4.43349 -3.574875,-11.68671 -4.271041,-19.5004 -0.310585,-3.48598 -0.384424,-5.83029 -0.331555,-10.52652 0.06473,-5.74962 0.143664,-6.89556 0.907431,-13.17348 0.217466,-1.7875 0.372862,-3.39092 0.345325,-3.56314 -0.02754,-0.17223 -0.569724,-1.20723 -1.204858,-2.3 -1.95489,-3.36347 -2.302294,-4.40125 -2.305419,-6.88686 -0.0021,-1.67633 0.126849,-2.53077 0.686012,-4.54543 0.702662,-2.53168 0.580436,-3.95875 -0.445692,-5.20378 -0.708027,-0.85907 -1.641315,-1.39146 -3.252264,-1.85527 -3.253114,-0.93659 -6.743903,0.22996 -7.711271,2.57695 -0.397299,0.96391 -0.467634,1.82861 -0.408943,5.02753 0.138819,7.56629 1.490652,15.63657 4.207786,25.11997 1.716617,5.99137 3.414263,10.69065 5.827087,16.13003 2.381898,5.36966 3.192925,7.44103 4.032882,10.3 0.428892,1.45982 1.180928,4.69307 1.110242,4.7733 -0.05614,0.0637 -2.527865,-3.7113 -3.452741,-5.2733 -5.680771,-9.59415 -10.139865,-21.69951 -12.368101,-33.57639 -1.058622,-5.64263 -1.495057,-10.63588 -1.321717,-15.12177 0.119962,-3.10454 0.592532,-6.77644 1.051263,-8.16839 0.548607,-1.66467 0.226039,-2.9063 -1.502501,-5.78345 -1.730833,-2.88097 -3.688514,-5.11274 -6.105694,-6.960541 -1.917308,-1.465673 -3.16053,-2.035333 -5.098589,-2.336234 -0.984555,-0.152861 -4.104644,-0.428921 -7.534844,-0.666668 -0.981345,-0.06802 -1.782338,-0.149069 -1.779985,-0.180114 0.0087,-0.115101 0.985486,-0.962049 1.465886,-1.271067 0.643749,-0.414091 1.666909,-0.79462 2.642668,-0.982848 0.427555,-0.08248 2.204783,-0.310273 3.949396,-0.506214 1.744614,-0.195941 3.469402,-0.424745 3.832863,-0.508454 1.393093,-0.320844 2.661212,-1.059585 4.429847,-2.580602 3.288877,-2.828417 5.585724,-3.962801 8.919939,-4.405448 2.059738,-0.273449 3.917834,-0.174191 5.851655,0.312589 1.352375,0.340419 2.294763,0.722169 3.663567,1.484066 2.600103,1.447255 4.419538,3.178578 7.675115,7.303421 3.24501,4.111453 5.44885,6.150574 9.50668,8.796124 3.82513,2.49384 6.97545,5.14949 9.72505,8.19801 4.58382,5.08214 9.11843,12.48415 12.04535,19.66203 3.33902,8.18851 5.64012,16.54941 6.99324,25.4095 0.4333,2.83718 0.85116,6.24876 1.63912,13.38245 1.23418,11.17343 1.60971,13.7552 2.50774,17.24059 1.39105,5.39892 3.66345,8.7971 7.4447,11.13291 0.90637,0.5599 0.84428,0.65315 -0.52867,0.79403 -1.07787,0.1106 -2.82475,0.14165 -3.61258,0.0642 z M 94.501788,105.8947 c 1.121736,-0.30425 2.135542,-0.77376 2.673462,-1.23812 0.627978,-0.54211 0.771169,-1.13865 0.459421,-1.91396 -0.437179,-1.08726 -2.21623,-3.310534 -3.589616,-4.485932 -0.951225,-0.814097 -2.790354,-1.868228 -3.864718,-2.215138 -1.676233,-0.54125 -3.606354,-0.705506 -4.676069,-0.397939 -0.532796,0.153191 -2.026779,0.928113 -1.952295,1.012647 0.02235,0.02537 0.511201,0.154958 1.086335,0.287984 2.614032,0.604615 4.454891,1.663075 5.942618,3.416898 1.151195,1.3571 1.916221,2.90463 2.369483,4.79312 0.252438,1.05176 0.247826,1.03836 0.357299,1.03836 0.05262,0 0.589956,-0.13407 1.19408,-0.29792 z M 72.46724,96.083872 c -0.145385,-0.05035 -0.89874,-0.247095 -1.674124,-0.437201 -2.356503,-0.577757 -4.682525,-0.840493 -6.255813,-0.706624 -0.467065,0.03974 -0.835781,0.0875 -0.81937,0.106123 0.02849,0.03234 4.801568,0.692331 7.119239,0.984405 0.605768,0.07634 1.279824,0.14016 1.4979,0.141825 0.372183,0.0028 0.38029,-0.0026 0.132168,-0.08853 z m 8.408556,-0.337663 c 0.307698,-0.180586 0.693299,-0.688672 0.763473,-1.005988 0.07467,-0.337644 -0.114651,-0.909948 -0.379112,-1.14604 -0.244164,-0.217973 -0.931293,-0.277557 -1.171248,-0.101564 -0.111491,0.08177 -0.106683,0.09718 0.03074,0.09847 0.305162,0.0029 0.745666,0.314625 0.850528,0.601942 0.224085,0.613981 -0.130959,1.200781 -0.828281,1.368943 -0.23836,0.05748 -0.244586,0.07057 -0.0933,0.196119 0.210983,0.175089 0.516087,0.170707 0.827199,-0.01188 z"
       id="path1" /></g></svg>
